/* XPM */
static char *graphic[] = {
/* width height num_colors chars_per_pixel */
"16 16 139 2", 
/* colors */
"   c None",
".  c #019993",
"X  c None",
"o  c #019993",
"O  c #019992",
"+  c None",
"@  c None",
"#  c #019992",
"$  c None",
"%  c #019992",
"&  c None",
"*  c None",
"=  c #019993",
"-  c None",
";  c None",
":  c #019992",
">  c #019992",
",  c None",
"<  c None",
"1  c #019993",
"2  c #019993",
"3  c None",
"4  c #019992",
"5  c #019993",
"6  c None",
"7  c None",
"8  c None",
"9  c #019992",
"0  c None",
"q  c None",
"w  c #019A92",
"e  c None",
"r  c None",
"t  c #019993",
"y  c #019993",
"u  c #019993",
"i  c None",
"p  c #019993",
"a  c None",
"s  c #019993",
"d  c None",
"f  c None",
"g  c None",
"h  c None",
"j  c #019892",
"k  c None",
"l  c #019893",
"z  c None",
"x  c None",
"c  c #019892",
"v  c None",
"b  c None",
"n  c None",
"m  c None",
"M  c None",
"N  c #019893",
"B  c None",
"V  c #019893",
"C  c None",
"Z  c None",
"A  c None",
"S  c None",
"D  c #019893",
"F  c None",
"G  c #019893",
"H  c None",
"J  c #019893",
"K  c None",
"L  c #019892",
"P  c #019893",
"I  c None",
"U  c None",
"Y  c None",
"T  c None",
"R  c None",
"E  c #019893",
"W  c None",
"Q  c #019893",
"!  c None",
"~  c #019893",
"^  c #019892",
"/  c #019893",
"(  c #019892",
")  c #019893",
"_  c None",
"`  c #019892",
"'  c #019892",
"]  c None",
"[  c #019893",
"{  c None",
"}  c None",
"|  c #019892",
" . c #019892",
".. c #019892",
"X. c #019893",
"o. c #019892",
"O. c #019893",
"+. c #019893",
"@. c #019893",
"#. c None",
"$. c #019892",
"%. c #019892",
"&. c #019893",
"*. c None",
"=. c #019991",
"-. c #019893",
";. c #019892",
":. c #019893",
">. c #019892",
",. c None",
"<. c #019892",
"1. c #019893",
"2. c #019892",
"3. c #019893",
"4. c None",
"5. c None",
"6. c #019892",
"7. c #019993",
"8. c None",
"9. c #019893",
"0. c None",
"q. c #019893",
"w. c #019993",
"e. c None",
"r. c None",
"t. c #019992",
"y. c None",
"u. c None",
"i. c #019992",
"p. c #019994",
"a. c None",
"s. c None",
"d. c #019994",
"f. c #019993",
"g. c None",
"h. c None",
"j. c None",
"k. c #019792",
"l. c #019994",
/* pixels */
"      i f . X.2.p  .. f b       ",
"    < P 3.<.@.1 ) O.2.3.J K     ",
"  _ O 1 i.@ 5.j.a.0 d.%.u E ,   ",
"e f.4 z d 7 g.l k x e.P 6.q.t.r ",
"a 1.<.+ n % &.D 4.Y _ g :.s 1.F ",
"G s s k.C - y.$ ^ >.R a./ s s P ",
"[ s s > n e.] U * p.#.X c s s 5 ",
"%.s s :.v 8 % ~ =.6 Z a.I t s 2.",
"9 s s u H r.: Q h.D O.q 8 | s y ",
"( s s s L C q ,.V > 2 m T [ s ' ",
"c p s s ` & s.A B u.M e.} O.p l.",
"g &.s s 9 *.0 5 | # k d ; <.-.{ ",
"d j 9.s 6.W b A 0.S j.H 4 9.N d ",
"  s.o <.s E h ! a 7.: ;.<.o s.  ",
"    j.w ..o.= ' $.6.6.+.w.j.    ",
"      x 3 w.: +.+.: w.8.x       "
};
