/* XPM */
static char *graphic[] = {
/* width height num_colors chars_per_pixel */
"32 32 265 2", 
/* colors */
"   c None",
".  c None",
"X  c None",
"o  c None",
"O  c None",
"+  c None",
"@  c None",
"#  c None",
"$  c #019992",
"%  c #019993",
"&  c None",
"*  c #019993",
"=  c None",
"-  c #019992",
";  c None",
":  c #019993",
">  c #019992",
",  c #019993",
"<  c None",
"1  c None",
"2  c #019993",
"3  c None",
"4  c None",
"5  c #019992",
"6  c None",
"7  c None",
"8  c None",
"9  c None",
"0  c None",
"q  c None",
"w  c None",
"e  c None",
"r  c #019992",
"t  c None",
"y  c #019992",
"u  c #019993",
"i  c #019993",
"p  c None",
"a  c None",
"s  c #019993",
"d  c None",
"f  c #019993",
"g  c None",
"h  c #019993",
"j  c #019993",
"k  c #019993",
"l  c #019792",
"z  c #019992",
"x  c #019993",
"c  c #019993",
"v  c #019992",
"b  c #019992",
"n  c None",
"m  c #019992",
"M  c None",
"N  c #019993",
"B  c #019992",
"V  c #019993",
"C  c #019992",
"Z  c None",
"A  c None",
"S  c None",
"D  c None",
"F  c #019992",
"G  c #019993",
"H  c None",
"J  c #019993",
"K  c #019992",
"L  c None",
"P  c None",
"I  c #019992",
"U  c None",
"Y  c #019993",
"T  c None",
"R  c None",
"E  c #019993",
"W  c None",
"Q  c None",
"!  c None",
"~  c #019993",
"^  c None",
"/  c #019993",
"(  c None",
")  c #019993",
"_  c #019993",
"`  c None",
"'  c #019993",
"]  c #019993",
"[  c None",
"{  c None",
"}  c #019891",
"|  c None",
" . c None",
".. c #019892",
"X. c None",
"o. c None",
"O. c #019892",
"+. c #019891",
"@. c None",
"#. c None",
"$. c None",
"%. c None",
"&. c None",
"*. c #019892",
"=. c None",
"-. c #019893",
";. c None",
":. c None",
">. c None",
",. c None",
"<. c #019893",
"1. c None",
"2. c None",
"3. c None",
"4. c None",
"5. c None",
"6. c None",
"7. c None",
"8. c #019893",
"9. c None",
"0. c None",
"q. c #019893",
"w. c None",
"e. c None",
"r. c None",
"t. c None",
"y. c #019892",
"u. c #019893",
"i. c None",
"p. c #019892",
"a. c None",
"s. c #019893",
"d. c #019892",
"f. c None",
"g. c None",
"h. c #019892",
"j. c None",
"k. c #019892",
"l. c None",
"z. c #019892",
"x. c #019893",
"c. c None",
"v. c #019892",
"b. c None",
"n. c None",
"m. c #019892",
"M. c None",
"N. c None",
"B. c None",
"V. c #019892",
"C. c #019893",
"Z. c #019892",
"A. c None",
"S. c #019893",
"D. c None",
"F. c None",
"G. c #019893",
"H. c None",
"J. c #019892",
"K. c #019893",
"L. c #019892",
"P. c #019893",
"I. c None",
"U. c #019892",
"Y. c #019892",
"T. c None",
"R. c #019892",
"E. c #019893",
"W. c None",
"Q. c #019892",
"!. c #019892",
"~. c #019893",
"^. c #019893",
"/. c #019892",
"(. c None",
"). c None",
"_. c #019893",
"`. c #019892",
"'. c None",
"]. c #019892",
"[. c #019893",
"{. c #019892",
"}. c #019892",
"|. c None",
" X c None",
".X c None",
"XX c None",
"oX c #019892",
"OX c #019893",
"+X c None",
"@X c None",
"#X c #019892",
"$X c #019892",
"%X c #019893",
"&X c #019893",
"*X c #019892",
"=X c #019893",
"-X c #019892",
";X c #019893",
":X c #019991",
">X c #019892",
",X c None",
"<X c #019893",
"1X c None",
"2X c None",
"3X c #019893",
"4X c #019892",
"5X c None",
"6X c #019893",
"7X c #019892",
"8X c #019893",
"9X c #019892",
"0X c #019892",
"qX c #019893",
"wX c None",
"eX c #019892",
"rX c #019893",
"tX c #019892",
"yX c None",
"uX c #019893",
"iX c None",
"pX c #019893",
"aX c None",
"sX c None",
"dX c #019992",
"fX c #019893",
"gX c None",
"hX c None",
"jX c None",
"kX c #019993",
"lX c #019893",
"zX c #019992",
"xX c None",
"cX c None",
"vX c None",
"bX c None",
"nX c None",
"mX c None",
"MX c #019992",
"NX c #019992",
"BX c None",
"VX c None",
"CX c None",
"ZX c #019992",
"AX c None",
"SX c #019992",
"DX c None",
"FX c None",
"GX c #019992",
"HX c None",
"JX c None",
"KX c None",
"LX c None",
"PX c None",
"IX c #019994",
"UX c None",
"YX c #019993",
"TX c None",
"RX c None",
"EX c #019993",
"WX c None",
"QX c None",
"!X c None",
"~X c None",
"^X c None",
/* pixels */
"                  :.gXB.2 {./ ] ] ' B - 0 n :.                  ",
"              :.j., 3X_ ] ] ] ] ] ] ] ] _ Y , X.!               ",
"          ~XA SXK ] ] ] ] ] ] ] ] ] ] ] ] ] ] E YX@X.           ",
"        X hXj _ ] ] ] ] / b ^.k.% C.!.uX] ] ] ] _ R.TXS         ",
"      X 2.v ] ] _ C J.IXHXA ,X# L  .KXcXv./ ] ] ] ] V ,.S       ",
"    8 ( oX0X/.p.a.=.DXS                 jX..4X] ] ] ] &XwX.     ",
"    M Y.] #Xo.%.        . :.).aXF.& ~X    QX8.eX] ] ] ] L.+     ",
"  w NX_ ] ~ <     S RXFXA.> }.-Xk 6.X       + /.] ] ] ] _ q.w   ",
"  3.C ] ] ] -.~X  PXS.K tX] lXZ.Q bXPXsX:.  S 7 _ ] ] ] ] C wX  ",
"# GX] ] ] ] Z.a   :.m.] ] C O.l. .sX5 3XiX    { *X] ] ] ] ] y.w ",
"A =X] ] ] ] $X2X  . q lXJ.nX .+ IXC ] ] u.L   1.E.] ] ] ] ] m yX",
"1 lX] ] ] ] 0X9.    mXM.w.a !Xj _ ] ] ] !.KX  S <.] ] ] ] ] eXi.",
"u.] ] ] ] ] ] NXX   S X S TXEXG._.OXv 6XJ T     #./ ] ] ] ] ] * ",
"J.] ] ] ] ] ] y VX    4.BX .# :.DXl.'.` D &     W.N ] ] ] ] ] ].",
"$X] ] ] ] ] ] 8Xo.    JXV., NXq 6 $.A ~X. 1.X    .h.] ] ] ] ] 7X",
"uX] ] ] ] ] ] _ e     AXF ] ] ] 0XK..X .@.x.g     f._ ] ] ] ] ] ",
"rX] ] ] ] ] ] ] % P   7.Y.] ] qXdXD.KXkX*X~ nX    LX>X] ] ] ] tX",
"=X] ] ] ] ] ] ] c e.  X u._ j 2.o &.G.0X] ] -.~X  (.V ] ] ] ] F ",
"P.] ] ] ] ] ] ] I TX    6.u.@XjX9 G ] ] ] ] , %.  VXQ.] ] ] ] U.",
"zX] ] ] ] ] ] ] tXT..   [ [ L $.YXd.S.5 ~.h q.P   ,Xl ] ] ] ] ZX",
"2./ ] ] ] ] ] ] ] S.:.    S | X X %.U o |.>.1..   5.OX] ] ] 0X^X",
"WX`.] ] ] ] ] ] ] z Z     ,.s.MX:X= g.JXTXW S     &.E ] ] ] %X X",
"X } tX] ] ] ] ] ] / CX    ,.7X] ] ' eX/ ].UXS   %.IXtX] ] tX8.H.",
"  ^ z ] ] ] ] ] ] ] dXS   H &X] _ E [.*.=.L   ~X( <X] ] ] ;XaX  ",
"  X I.0X] ] ] ] ] ] u 1.  [ u.z.f.T PXX     S +X!.] ] ] 0Xd L   ",
"    ;.$ tX] ] ] ] ] B `     XX[         ~Xl.n.V ] ] ] tXC.r.    ",
"      R ^.' ] ] ] ] ) 3           S vXxXN.f fX] ] ] ' s 2X      ",
"      . aXi tX] ] ] ] SXL ~XQX; UX+.J.8X_ ] ] ] ] _ r aX.       ",
"        . 1Xd./ ] ] ] x 0.:XG.;X9X] ] ] ] ] ] ] pX: @X          ",
"            DXp `.eX] _ / ' ] ] ] ] ] ] ] ] eXOXt t.            ",
"              S Z b.y rXtX] ] ] ] ] ] tXrXy b.O S               ",
"                  S RX@ 4 p.~.OXOXJ.% c.5XRXS                   "
};
