/* XPM */
static char *graphic[] = {
/* width height num_colors chars_per_pixel */
"64 64 375 2", 
/* colors */
"   c None",
".  c #019993",
"X  c #019992",
"o  c None",
"O  c None",
"+  c None",
"@  c None",
"#  c #019992",
"$  c None",
"%  c None",
"&  c None",
"*  c None",
"=  c #019992",
"-  c #019993",
";  c None",
":  c None",
">  c #019993",
",  c #019993",
"<  c #019992",
"1  c None",
"2  c #019993",
"3  c #019992",
"4  c #019992",
"5  c #019993",
"6  c None",
"7  c None",
"8  c None",
"9  c None",
"0  c None",
"q  c None",
"w  c #019993",
"e  c #019993",
"r  c None",
"t  c None",
"y  c None",
"u  c None",
"i  c None",
"p  c #019993",
"a  c None",
"s  c None",
"d  c None",
"f  c #019992",
"g  c #019993",
"h  c None",
"j  c None",
"k  c #019994",
"l  c None",
"z  c None",
"x  c None",
"c  c None",
"v  c #019992",
"b  c #019993",
"n  c None",
"m  c None",
"M  c #019992",
"N  c #019993",
"B  c None",
"V  c None",
"C  c #019993",
"Z  c None",
"A  c None",
"S  c #019993",
"D  c None",
"F  c #019993",
"G  c None",
"H  c None",
"J  c #019993",
"K  c None",
"L  c None",
"P  c #019993",
"I  c None",
"U  c #019992",
"Y  c #019993",
"T  c #019992",
"R  c #019993",
"E  c #019992",
"W  c #019993",
"Q  c #019992",
"!  c #019993",
"~  c #019992",
"^  c None",
"/  c #019992",
"(  c #019993",
")  c #019992",
"_  c None",
"`  c #019993",
"'  c #019992",
"]  c #019993",
"[  c #019992",
"{  c None",
"}  c None",
"|  c None",
" . c #019992",
".. c None",
"X. c None",
"o. c #019993",
"O. c #019992",
"+. c None",
"@. c None",
"#. c #019992",
"$. c None",
"%. c None",
"&. c #019993",
"*. c None",
"=. c #019993",
"-. c None",
";. c #019993",
":. c None",
">. c #019A92",
",. c None",
"<. c #019993",
"1. c None",
"2. c None",
"3. c #019993",
"4. c None",
"5. c #019993",
"6. c None",
"7. c None",
"8. c #019993",
"9. c #019993",
"0. c #019A92",
"q. c #019993",
"w. c #019993",
"e. c None",
"r. c None",
"t. c None",
"y. c #019993",
"u. c #019993",
"i. c None",
"p. c None",
"a. c #019892",
"s. c #019891",
"d. c None",
"f. c None",
"g. c #019892",
"h. c #019A94",
"j. c None",
"k. c None",
"l. c #019892",
"z. c #019891",
"x. c None",
"c. c None",
"v. c None",
"b. c None",
"n. c None",
"m. c #019A93",
"M. c #019893",
"N. c None",
"B. c None",
"V. c None",
"C. c #019892",
"Z. c None",
"A. c None",
"S. c #019893",
"D. c None",
"F. c None",
"G. c None",
"H. c #019891",
"J. c None",
"K. c #019892",
"L. c None",
"P. c #019893",
"I. c None",
"U. c #019893",
"Y. c None",
"T. c None",
"R. c None",
"E. c None",
"W. c #019891",
"Q. c #019892",
"!. c None",
"~. c #019893",
"^. c #019892",
"/. c None",
"(. c None",
"). c None",
"_. c None",
"`. c #019893",
"'. c None",
"]. c #019892",
"[. c None",
"{. c #019893",
"}. c None",
"|. c None",
" X c #019892",
".X c #019892",
"XX c None",
"oX c None",
"OX c #019893",
"+X c None",
"@X c #019893",
"#X c None",
"$X c #019892",
"%X c #019891",
"&X c #019893",
"*X c #019892",
"=X c #019893",
"-X c None",
";X c #019893",
":X c None",
">X c #019892",
",X c #019893",
"<X c None",
"1X c #019892",
"2X c #019893",
"3X c None",
"4X c None",
"5X c None",
"6X c #019892",
"7X c None",
"8X c None",
"9X c #019892",
"0X c None",
"qX c None",
"wX c None",
"eX c #019892",
"rX c None",
"tX c #019892",
"yX c #019893",
"uX c None",
"iX c None",
"pX c None",
"aX c None",
"sX c None",
"dX c #019893",
"fX c #019892",
"gX c #019892",
"hX c #019893",
"jX c #019892",
"kX c None",
"lX c #019893",
"zX c None",
"xX c #019893",
"cX c None",
"vX c None",
"bX c None",
"nX c #019893",
"mX c #019892",
"MX c #019893",
"NX c None",
"BX c #019892",
"VX c #019893",
"CX c None",
"ZX c None",
"AX c #019893",
"SX c #019892",
"DX c None",
"FX c #019893",
"GX c None",
"HX c #019892",
"JX c #019893",
"KX c #019892",
"LX c #019892",
"PX c #019892",
"IX c #019893",
"UX c None",
"YX c #019892",
"TX c None",
"RX c #019892",
"EX c #019892",
"WX c #019893",
"QX c #019892",
"!X c #019892",
"~X c #019893",
"^X c #019892",
"/X c #019893",
"(X c None",
")X c None",
"_X c None",
"`X c #019893",
"'X c None",
"]X c #019893",
"[X c None",
"{X c None",
"}X c #019892",
"|X c #019892",
" o c #019893",
".o c #019892",
"Xo c #019893",
"oo c #019892",
"Oo c #019893",
"+o c #019892",
"@o c #019893",
"#o c None",
"$o c None",
"%o c #019893",
"&o c #019892",
"*o c #019893",
"=o c None",
"-o c None",
";o c #019892",
":o c None",
">o c #019892",
",o c None",
"<o c #019893",
"1o c #019893",
"2o c #019991",
"3o c #019892",
"4o c #019893",
"5o c None",
"6o c None",
"7o c #019892",
"8o c #019892",
"9o c #019893",
"0o c #019892",
"qo c None",
"wo c #019893",
"eo c #019893",
"ro c None",
"to c #019892",
"yo c #019992",
"uo c #019893",
"io c None",
"po c None",
"ao c #019893",
"so c None",
"do c #019993",
"fo c #019791",
"go c #019893",
"ho c None",
"jo c #019893",
"ko c #019993",
"lo c None",
"zo c None",
"xo c None",
"co c #019992",
"vo c #019893",
"bo c #019893",
"no c #019993",
"mo c None",
"Mo c #019893",
"No c #019992",
"Bo c None",
"Vo c None",
"Co c None",
"Zo c #019992",
"Ao c #019993",
"So c None",
"Do c None",
"Fo c None",
"Go c None",
"Ho c #019992",
"Jo c None",
"Ko c #019792",
"Lo c None",
"Po c #019994",
"Io c #019992",
"Uo c None",
"Yo c None",
"To c None",
"Ro c None",
"Eo c #019994",
"Wo c None",
"Qo c None",
"!o c None",
"~o c None",
"^o c #019993",
"/o c None",
"(o c None",
")o c None",
"_o c #019993",
"`o c None",
"'o c None",
"]o c None",
"[o c None",
"{o c None",
"}o c None",
"|o c #019792",
" O c #019993",
".O c None",
"XO c None",
"oO c None",
"OO c #019993",
"+O c None",
"@O c None",
/* pixels */
"                                          o t.} n.wXW.IX*ow.u.u.u.u.u.y.1oMX2o!.$.O o                                           ",
"                                      f.0Xn 3 @o5.y.u.u.u.u.u.u.u.u.u.u.u.u.u.jo~ eX-Xrof.                                      ",
"                                  Dopo;X~ 0ou.u.u.u.u.u.u.u.u.u.u.u.u.u.u.u.u.u.u.u.0oo.. 1 Do                                  ",
"                              Y.(.yXO.u.u.u.u.u.u.u.u.u.u.u.u.u.u.u.u.u.u.u.u.u.u.u.u.u.u.O.>X/ox                               ",
"                          | $.{.4ou.u.u.u.u.u.u.u.u.u.u.u.u.u.u.u.u.u.u.u.u.u.u.u.u.u.u.u.u.u.[ m.{XoO                          ",
"                        2.N.EXw.u.u.u.u.u.u.u.u.u.u.u.u.u.u.u.u.u.u.u.u.u.u.u.u.u.u.u.u.u.u.u.u.w.PXe.Y.                        ",
"                      ; co&ou.u.u.u.u.u.u.u.u.u.u.u.u.u.u.u.u.w.0o0ow.u.u.u.u.u.u.u.u.u.u.u.u.u.u.u.O.yoFo                      ",
"                    {X1Xvou.u.u.u.u.u.u.u.u.u.u.u.to#. onX^os To: : }.ko*X]X3ou.u.u.u.u.u.u.u.u.u.u.u.8o> UX                    ",
"                o r.FXw.u.u.u.u.u.u.u.u.u.u.3oU # K $ TXO |             & kXT.*X=.u.u.u.u.u.u.u.u.u.u.u.w.xX}                   ",
"                r.IXtou.u.u.u.u.u.u.booov EoD.UXY.                            F.x.VX9.u.u.u.u.u.u.u.u.u.u.toVX_X                ",
"              { AXtou.u.u.u.touo!X, +XloUo|                                       R.~.>ou.u.u.u.u.u.u.u.u.u.to4 B               ",
"            [o5 w.u.u.5.QX# 8X(._.&                                                 DouX>ou.u.u.u.u.u.u.u.u.u.0o. Uo            ",
"          %.Ko8ou.u.u.W #of.                                                          O U.8ou.u.u.u.u.u.u.u.u.u.5.d @.          ",
"        oOT.9ou.u.u.u.[ lo                            +.Fo-o,oGoGoqo(Xx                 ; xXu.u.u.u.u.u.u.u.u.u.u.1o6 o         ",
"        XXSXu.u.u.u.u.0orX                    oO!or.u =XSX) <.8o8o;oKX!.|                 i.oou.u.u.u.u.u.u.u.u.u.u.mXCX        ",
"      B.Po0ou.u.u.u.u.u. XB.            B.5X`odoMX*o0ou.u.u.u.u.w.J T.F.                  x H.y.u.u.u.u.u.u.u.u.u.u.0onocX      ",
"      ^ }Xu.u.u.u.u.u.u.YX5X          {oHoY #.tou.u.u.u.u.u.u.uoIo_ oO      @.F.            E. .u.u.u.u.u.u.u.u.u.u.u.o.Z.      ",
"    L Hotou.u.u.u.u.u.u.;.-.          ; /Xu.u.u.u.u.u.u.u.to! 7 Do      | _X0.Aop.          A lXu.u.u.u.u.u.u.u.u.u.u.MoOXf.    ",
"    io/ u.u.u.u.u.u.u.u.topX          cX].u.u.u.u.u.u.u.3o> 7.|       )X'oR w. .i.            +X0ou.u.u.u.u.u.u.u.u.u.u.*oj.    ",
"  | g.w.u.u.u.u.u.u.u.u.u.e Y.          }.0ou.u.u.u.y.OoNXI.      +.Lo5 aou.u.u..Xx           4.) u.u.u.u.u.u.u.u.u.u.u.toU.+.  ",
"  0 P u.u.u.u.u.u.u.u.u.u.` GX          so1ou.u.u.8.g Vo+       ; 8XQ y.u.u.u.u.}X5o          A b u.u.u.u.u.u.u.u.u.u.u.u.! G   ",
"  mo>ou.u.u.u.u.u.u.u.u.u.3omo          UomXu.y.~ 8XA.      f.+OgX8ou.u.u.u.u.u.0oc           oOfoy.u.u.u.u.u.u.u.u.u.u.u.8.N.  ",
"| ~.u.u.u.u.u.u.u.u.u.u.u.u.yooO        | No3.1XL.+.    oO..C.[ u.u.u.u.u.u.u.u.u.5 f.          +O>ou.u.u.u.u.u.u.u.u.u.u.u..XL ",
"zoIXu.u.u.u.u.u.u.u.u.u.u.u.VXb.          Wo8 c.      Do.OP w.u.u.u.u.u.u.u.u.u.u.^XTX          TX^Xu.u.u.u.u.u.u.u.u.u.u.u.!XCX",
"6o<ou.u.u.u.u.u.u.u.u.u.u.u.%o#o          oOo       _ ^.O.tou.u.u.u.u.u.u.u.u.u.u.>oxo          f.k u.u.u.u.u.u.u.u.u.u.u.u.uoi.",
"]o8ou.u.u.u.u.u.u.u.u.u.u.u.8o.O                    }oxoSo+Xa.`.- tXmXR E <o;.3o9.w.doo           -Xw.u.u.u.u.u.u.u.u.u.u.u.to9 ",
"uXu.u.u.u.u.u.u.u.u.u.u.u.u.u.Ho+                             oO+.p.I.|.GXroL.k.Soc sXd.          Lo4ou.u.u.u.u.u.u.u.u.u.u.u.OO",
".Xu.u.u.u.u.u.u.u.u.u.u.u.u.u.F Fo          oO& + o                                               zomXu.u.u.u.u.u.u.u.u.u.u.u.mX",
"jXu.u.u.u.u.u.u.u.u.u.u.u.u.u. .Lo          Uo`.].s.DX.OxoZ.{X5X)Xf.d.                            | U.u.u.u.u.u.u.u.u.u.u.u.u..o",
"! u.u.u.u.u.u.u.u.u.u.u.u.u.u.w.aX          f.*Xu.u.y.0o3.9o~ ]Xv dX&XS.c rooO      cXzX|           D.3ou.u.u.u.u.u.u.u.u.u.u.vo",
".ou.u.u.u.u.u.u.u.u.u.u.u.u.u.u.$XL           n w.u.u.u.u.u.u.u.u.u.u.3.,X{X      Fos dX/.          GX` u.u.u.u.u.u.u.u.u.u.u.u.",
"+ou.u.u.u.u.u.u.u.u.u.u.u.u.u.u.QXkX          *.9ou.u.u.u.u.u.u.u.y.] c b.    d.Z.%X7oooI           p.dXu.u.u.u.u.u.u.u.u.u.u.u.",
"1ou.u.u.u.u.u.u.u.u.u.u.u.u.u.u.;oi.          ~o~Xu.u.u.u.u.u.u.8.p Lo+     b.V T y.u.0oTo          o l y.u.u.u.u.u.u.u.u.u.u.u.",
"Q u.u.u.u.u.u.u.u.u.u.u.u.u.u.u.tod o         +.@Xu.u.u.u.u.u.*owX/.    oO:. Xaou.u.u.u.2X@.          r 5.u.u.u.u.u.u.u.u.u.u.q.",
"KXu.u.u.u.u.u.u.u.u.u.u.u.u.u.u.u.eXF.          * 9.u.u.u.0oC (.B.    p.#XYXtou.u.u.u.u.]X'.          #o*ou.u.u.u.u.u.u.u.u.u.[ ",
"eXu.u.u.u.u.u.u.u.u.u.u.u.u.u.u.u.Oo_           r.' u.u.=.co_.    o G Zowou.u.u.u.u.u.u.&o[X          Qo`Xu.u.u.u.u.u.u.u.u.u.KX",
"|ou.u.u.u.u.u.u.u.u.u.u.u.u.u.u.u.5.T.          I.FXw.P (oY.    & JoS 0ou.u.u.u.u.u.u.u.0o*           Dof u.u.u.u.u.u.u.u.u.u.X ",
"qXtou.u.u.u.u.u.u.u.u.u.u.u.u.u.u.u.co|         | koIo{XoO    0 no1ou.u.u.u.u.u.u.u.u.u.u.z           f.6Xu.u.u.u.u.u.u.u.u.u.g.",
"po>ou.u.u.u.u.u.u.u.u.u.u.u.u.u.u.u.JX=o          FoO     | LohX>o9.botou.u.u.u.u.u.u.u.u.Z           B.5 u.u.u.u.u.u.u.u.u.8o)o",
"..] u.u.u.u.u.u.u.u.u.u.u.u.u.u.u.u.&.6o                  + 6oJon.)o8 V K h.U.Ho. *XhXfXJX#X          & = u.u.u.u.u.u.u.u.u.*om ",
"1.p u.u.u.u.u.u.u.u.u.u.u.u.u.u.u.u.9.3X                                    o | + B.x t.b.L           DoN u.u.u.u.u.u.u.u.u.FXI.",
"o z w.u.u.u.u.u.u.u.u.u.u.u.u.u.u.u.u. O+.                                                            kX!Xu.u.u.u.u.u.u.u.y.>.| ",
"  lo<ou.u.u.u.u.u.u.u.u.u.u.u.u.u.u.u.KX;           I.Co7XhoWolo:.}o[.b.Y.+.|                         $owou.u.u.u.u.u.u.u.wo,.  ",
"  O dXu.u.u.u.u.u.u.u.u.u.u.u.u.u.u.u.O.V.          t LXjo3o#. ..oXoLXJXg - HoAoD c q vXo           oOwXtou.u.u.u.u.u.u.u.f Uo  ",
"    :X5.u.u.u.u.u.u.u.u.u.u.u.u.u.u.u.w.H           L - u.u.u.u.u.u.u.u.u.u.u.u.u.to o:o            QoM u.u.u.u.u.u.u.u.vo+Xo   ",
"    0 M u.u.u.u.u.u.u.u.u.u.u.u.u.u.u.u.yXx           +Xw.u.u.u.u.u.u.u.u.u.u.u.0oWXpo|           | @O7ou.u.u.u.u.u.u.u.RXG     ",
"    oOoXjou.u.u.u.u.u.u.u.u.u.u.u.u.u.u.( G           Lo .u.u.u.u.u.u.u.u.u.8.]XM.UXoO            } R u.u.u.u.u.u.u.u.vo% |     ",
"      ; C u.u.u.u.u.u.u.u.u.u.u.u.u.u.u.ao<X          FoF u.u.u.u.u.toeoEX XN.TX+               zo2Xw.u.u.u.u.u.u.u.u.M kX      ",
"      o T.;.u.u.u.u.u.u.u.u.u.u.u.u.u.u.y.g.oO        + Hou.u.8.] w 4Xqot B.                  )XU.7ou.u.u.u.u.u.u.u.#.: oO      ",
"        F.How.u.u.u.u.u.u.u.u.u.u.u.u.u.u.nXDo          RojXQ.: { Y.                        0 K.gou.u.u.u.u.u.u.u.w.&XXO        ",
"          (XM u.u.u.u.u.u.u.u.u.u.u.u.u.u.}X:.          & b.+                           Bov.lX9.u.u.u.u.u.u.u.u.u.J {X          ",
"          o po}Xu.u.u.u.u.u.u.u.u.u.u.u.u.8o#X                                      + _Xl.}Xy.u.u.u.u.u.u.u.u.u..ok.oO          ",
"            +.a O.u.u.u.u.u.u.u.u.u.u.u.u.u.K.+                               o A VoP. oq.u.u.u.u.u.u.u.u.u.u.wo@ +.            ",
"              x i uou.u.u.u.u.u.u.u.u.u.u.u.BXG.                        | Uoj.iXxX[ tou.u.u.u.u.u.u.u.u.u.u.uoZXY.              ",
"                F.uX#.u.u.u.u.u.u.u.u.u.u.u.[ ^                 o 2.(Xn.U.v [ w.u.u.u.u.u.u.u.u.u.u.u.u.u.#.l F.                ",
"                  F.bX .u.u.u.u.u.u.u.u.u.u.0oV           & kX`os < ] gou.u.u.u.u.u.u.u.u.u.u.u.u.u.u.u.4oh 1.                  ",
"                    f.:X] u.u.u.u.u.u.u.u.u.u.W.B.+.[.*.NX, ]X#.tou.u.u.u.u.u.u.u.u.u.u.u.u.u.u.u.u.y.` ).L                     ",
"                      d.X.MX9.u.u.u.u.u.u.u.u. oy _oHX9ow.u.u.u.u.u.u.u.u.u.u.u.u.u.u.u.u.u.u.u.u.8oxXYo|                       ",
"                          {og.) u.u.u.u.u.u.u.to0ou.u.u.u.u.u.u.u.u.u.u.u.u.u.u.u.u.u.u.u.u.u.y.|XdoQo                          ",
"                            B.V.2 ;.u.u.u.u.u.u.u.u.u.u.u.u.u.u.u.u.u.u.u.u.u.u.u.u.u.u.u.u.;., L.B.                            ",
"                                DoCoyX .y.u.u.u.u.u.u.u.u.u.u.u.u.u.u.u.u.u.u.u.u.u.u.y.4ok JoDo                                ",
"                                    XOWo~.R 3.u.u.u.u.u.u.u.u.u.u.u.u.u.u.u.u.u.u.3.R z.[XO                                     ",
"                                        + kXJ.U.jX@o>ow.u.u.u.u.u.u.u.u.w.3.o.C C.D.kX+                                         ",
"                                              | 'X_X6.a g._o*XdX9X5 Iol.j xo} I.|                                               "
};
