<?xml version="1.0" encoding="UTF-8" standalone="no"?>
<!-- Created with Inkscape (http://www.inkscape.org/) -->

<svg
   version="1.1"
   id="svg1"
   width="1024"
   height="1024"
   viewBox="0 0 1024 1024"
   sodipodi:docname="logodpowcoin.svg"
   inkscape:version="1.3.2 (091e20e, 2023-11-25, custom)"
   inkscape:export-filename="logodpowcoin.png"
   inkscape:export-xdpi="96"
   inkscape:export-ydpi="96"
   xmlns:inkscape="http://www.inkscape.org/namespaces/inkscape"
   xmlns:sodipodi="http://sodipodi.sourceforge.net/DTD/sodipodi-0.dtd"
   xmlns="http://www.w3.org/2000/svg"
   xmlns:svg="http://www.w3.org/2000/svg">
  <defs
     id="defs1" />
  <sodipodi:namedview
     id="namedview1"
     pagecolor="#ffffff"
     bordercolor="#000000"
     borderopacity="0.25"
     inkscape:showpageshadow="2"
     inkscape:pageopacity="0.0"
     inkscape:pagecheckerboard="0"
     inkscape:deskcolor="#d1d1d1"
     inkscape:zoom="1.1455078"
     inkscape:cx="511.56351"
     inkscape:cy="512"
     inkscape:window-width="2453"
     inkscape:window-height="1237"
     inkscape:window-x="404"
     inkscape:window-y="-13"
     inkscape:window-maximized="0"
     inkscape:current-layer="svg1" />
  <path
     style="fill:#019993;stroke:none;stroke-width:0.999537"
     d="M 489.31116,0.42130872 C 451.03427,5.436097 413.86968,7.963266 376.2391,18.12045 276.03724,45.166705 184.84063,104.18388 118.51002,183.70981 -32.735367,365.04287 -38.846455,635.57817 105.71792,822.7088 c 32.27886,41.78318 70.84634,78.83652 114.42169,108.80411 50.77092,34.91612 107.28695,60.61165 167.1065,75.53359 62.67633,15.6346 128.10728,19.4736 192.12245,11.0746 C 741.94916,996.78968 886.33043,896.67795 964.30523,752.81829 1001.493,684.20872 1021.2048,606.82896 1024.6129,529.16864 1034.9994,292.49137 868.04882,72.884027 638.40618,15.59968 591.92185,4.004197 537.3171,-5.8680941 489.31116,0.42130872 M 384.2442,927.54457 263.01569,476.25153 211.24969,283.5534 188.11921,196.68947 c 69.56511,-14.3271 138.55192,-36.554 207.13201,-55.06499 72.46528,-19.55969 148.54309,-33.47142 221.14093,-5.92509 45.66632,17.32752 84.80832,48.7381 111.01753,89.94473 32.95826,51.81762 45.37535,111.27301 61.24351,169.7341 28.5399,105.14626 79.04145,227.67411 22.97759,332.47917 -7.77803,14.54009 -16.81162,28.39424 -27.55998,40.93587 -53.37521,62.28006 -127.56141,85.14457 -203.70161,106.25793 -65.21008,18.08245 -130.97962,34.18363 -196.12499,52.49338 m -67.04273,-660.96458 11.58301,44.92961 19.43676,71.88739 c 56.80152,-31.55421 110.00056,-72.50671 164.10459,-108.49673 19.40079,-12.90538 38.97057,-29.32722 60.03826,-39.27179 v -1.99687 c -66.98742,-29.62766 -147.45096,4.36608 -213.13583,22.11661 -13.72298,3.70848 -27.9388,8.93735 -42.02679,10.83178 m 103.06569,137.78416 v 0.99843 l 179.11415,15.14602 85.05421,6.81957 C 669.4789,374.73801 660.92872,319.88406 628.3998,274.56748 l -22.01403,12.55595 -44.02806,27.69964 -142.09055,89.54108 m -53.0338,49.92179 43.02742,160.74819 58.03699,-40.21709 137.08737,-95.5702 -23.01467,-3.28038 -58.03699,-5.87502 -107.06823,-10.98206 -50.03189,-4.82344 m 330.21045,24.9609 -119.07589,82.89559 -98.0625,67.86824 v 0.99843 c 60.59233,0 121.55415,4.79571 182.11528,7.02525 15.67954,0.57722 31.32379,1.9597 47.03076,1.96068 3.75587,2.4e-4 12.37122,2.16415 15.42108,-0.0423 2.84904,-2.06122 2.54868,-7.86097 2.58655,-10.94044 0.11134,-9.04589 0.36205,-17.89805 -0.0355,-26.95777 -1.28536,-29.28957 -11.73813,-58.82046 -19.54871,-86.86393 -3.10701,-11.15533 -4.38193,-26.06173 -10.43107,-35.94371 m -268.17091,206.6762 31.01977,115.81857 c 23.68797,-1.03049 50.20161,-12.21031 73.04655,-18.54657 56.04793,-15.54542 132.29317,-26.361 166.10586,-80.29859 -8.60863,-2.53899 -19.04754,-1.47328 -28.01785,-2.08621 -21.00497,-1.43531 -42.03442,-2.55843 -63.04018,-3.99375 -59.36272,-4.05632 -119.59154,-10.89345 -179.11415,-10.89345 z"
     id="path1" />
</svg>
